# xmcd
# 
# Track frame offsets:
#     150
#     13534
#     27788
#     41021
#     54677
#     69722
#     81669
#     96489
#     108566
#     123817
#     135454
#     149833
#     162906
#     175125
#     189501
#     202596
#     217231
#     230744
#     244591
#     256697
#     268526
#     277188
#     288368
#     301759
# 
# Disc length: 4158
# 
# Revision: 1
# Processed by: cddbd v1.5.2PL0 Copyright (c) Steve Scherf et al.
# Submitted via: fre:ac v1.0.17
# 
DISCID=67103c18
DTITLE=John Steinbeck - The Grapes of Wrath [CD06)
DYEAR=1939
DGENRE=Audiobook
TTITLE0=Chapter 13.07
TTITLE1=Chapter 13.08
TTITLE2=Chapter 13.09
TTITLE3=Chapter 13.10
TTITLE4=Chapter 13.11
TTITLE5=Chapter 13.12
TTITLE6=Chapter 13.13
TTITLE7=Chapter 13.14
TTITLE8=Chapter 13.15
TTITLE9=Chapter 13.16
TTITLE10=Chapter 13.17
TTITLE11=Chapter 13.18
TTITLE12=Chapter 13.19
TTITLE13=Chapter 13.20
TTITLE14=Chapter 13.21
TTITLE15=Chapter 13.22
TTITLE16=Chapter 13.23
TTITLE17=Chapter 13.24
TTITLE18=Chapter 13.25
TTITLE19=Chapter 13.26
TTITLE20=Chapter 13.27
TTITLE21=Chapter 14.01
TTITLE22=Chapter 14.02
TTITLE23=Chapter 14.03
EXTD=The Grapes of Wrath by John Steinbeck\nread by Dylan Baker recorded books 18 CDs\nnational folk country
EXTT0=
EXTT1=
EXTT2=
EXTT3=
EXTT4=
EXTT5=
EXTT6=
EXTT7=
EXTT8=
EXTT9=
EXTT10=
EXTT11=
EXTT12=
EXTT13=
EXTT14=
EXTT15=
EXTT16=
EXTT17=
EXTT18=
EXTT19=
EXTT20=
EXTT21=
EXTT22=
EXTT23=
PLAYORDER=
